<svg xmlns="http://www.w3.org/2000/svg">
  <symbol id="main" viewBox="0 0 172 172">
    <path
      d="M85.355,0c-1.16906,0.215 -2.15,1.03469 -2.58,2.15l-34.4,82.56c-0.43,1.06156 -0.29562,2.27094 0.34938,3.225c0.645,0.95406 1.72,1.51844 2.87562,1.505h26.23l-25.6925,77.185l-0.3225,0.86c-0.56437,1.63938 0.17469,3.44 1.73344,4.20594c1.55875,0.76594 3.44,0.25531 4.39406,-1.19594l65.36,-99.76c0.72563,-1.06156 0.79281,-2.44562 0.18813,-3.57437c-0.61813,-1.12875 -1.80063,-1.8275 -3.09063,-1.80063h-25.6925l27.09,-60.5225c0.47031,-1.06156 0.37625,-2.28437 -0.25531,-3.26531c-0.63156,-0.9675 -1.70656,-1.55875 -2.86219,-1.57219h-32.68c-0.1075,0 -0.215,0 -0.3225,0c-0.1075,0 -0.215,0 -0.3225,0zM88.365,6.88h25.0475l-27.09,60.5225c-0.47031,1.06156 -0.37625,2.28438 0.25531,3.26531c0.63156,0.9675 1.70656,1.55875 2.86219,1.57219h24.51l-47.3,72.24l19.135,-57.405c0.33594,-1.03469 0.17469,-2.17687 -0.47031,-3.07719c-0.63156,-0.88688 -1.65281,-1.42438 -2.75469,-1.43781h-25.8z"/>
  </symbol>
</svg>
