<svg xmlns="http://www.w3.org/2000/svg">
  <symbol id="on" viewBox="0 0 172 172">
    <path
      d="M85.6775,3.3325c-0.14781,0.02688 -0.29562,0.06719 -0.43,0.1075c-1.59906,0.36281 -2.72781,1.80063 -2.6875,3.44v13.76c-0.01344,1.23625 0.63156,2.39188 1.70656,3.02344c1.075,0.61813 2.39187,0.61813 3.46687,0c1.075,-0.63156 1.72,-1.78719 1.70656,-3.02344v-13.76c0.04031,-0.99437 -0.36281,-1.94844 -1.075,-2.62031c-0.72562,-0.68531 -1.70656,-1.02125 -2.6875,-0.92719zM34.5075,24.51c-0.1075,0.02688 -0.215,0.06719 -0.3225,0.1075c-1.23625,0.25531 -2.23062,1.1825 -2.59344,2.39188c-0.36281,1.20937 -0.02688,2.52625 0.87344,3.41312l9.7825,9.7825c0.83313,1.02125 2.16344,1.49156 3.45344,1.19594c1.27656,-0.29562 2.28438,-1.30344 2.58,-2.58c0.29563,-1.29 -0.17469,-2.62031 -1.19594,-3.45344l-9.7825,-9.7825c-0.645,-0.68531 -1.53187,-1.06156 -2.4725,-1.075c-0.1075,0 -0.215,0 -0.3225,0zM136.74,24.51c-0.14781,0.02688 -0.29562,0.06719 -0.43,0.1075c-0.61812,0.16125 -1.16906,0.49719 -1.6125,0.9675l-9.7825,9.7825c-1.02125,0.83313 -1.49156,2.16344 -1.19594,3.45344c0.29562,1.27656 1.30344,2.28438 2.58,2.58c1.29,0.29563 2.62031,-0.17469 3.45344,-1.19594l9.7825,-9.7825c1.075,-1.02125 1.38406,-2.62031 0.7525,-3.96406c-0.645,-1.35719 -2.06937,-2.13656 -3.5475,-1.94844zM86,30.96c-26.5525,0 -48.16,21.6075 -48.16,48.16c0,16.82375 7.53844,28.12469 14.62,36.4425c3.5475,4.15219 6.97406,7.67281 9.3525,10.75c2.37844,3.07719 3.5475,5.53625 3.5475,7.8475v12.1475c-0.45687,0.95406 -0.45687,2.05594 0,3.01v2.0425c0,5.65719 4.66281,10.32 10.32,10.32h2.6875c1.89469,2.09625 4.59563,3.44 7.6325,3.44c3.03688,0 5.73781,-1.34375 7.6325,-3.44h2.6875c5.65719,0 10.32,-4.66281 10.32,-10.32v-2.795c0.09406,-0.45687 0.09406,-0.94062 0,-1.3975v-13.0075c0,-2.31125 1.16906,-4.79719 3.5475,-7.8475c2.37844,-3.05031 5.805,-6.50375 9.3525,-10.6425c7.08156,-8.2775 14.62,-19.57844 14.62,-36.55c0,-26.5525 -21.6075,-48.16 -48.16,-48.16zM86,37.84c22.84375,0 41.28,18.43625 41.28,41.28c0,14.99625 -6.22156,24.34875 -12.9,32.1425c-3.3325,3.89688 -6.78594,7.29656 -9.5675,10.8575c-2.0425,2.62031 -3.50719,5.4825 -4.3,8.6h-29.025c-0.79281,-3.1175 -2.2575,-5.96625 -4.3,-8.6c-2.78156,-3.58781 -6.235,-7.04125 -9.5675,-10.965c-6.67844,-7.83406 -12.9,-17.2 -12.9,-32.035c0,-22.84375 18.43625,-41.28 41.28,-41.28zM12.7925,75.68c-1.89469,0.26875 -3.225,2.02906 -2.95625,3.92375c0.26875,1.89469 2.02906,3.225 3.92375,2.95625h13.76c1.23625,0.01344 2.39188,-0.63156 3.02344,-1.70656c0.61813,-1.075 0.61813,-2.39187 0,-3.46687c-0.63156,-1.075 -1.78719,-1.72 -3.02344,-1.70656h-13.76c-0.1075,0 -0.215,0 -0.3225,0c-0.1075,0 -0.215,0 -0.3225,0c-0.1075,0 -0.215,0 -0.3225,0zM143.5125,75.68c-1.89469,0.26875 -3.225,2.02906 -2.95625,3.92375c0.26875,1.89469 2.02906,3.225 3.92375,2.95625h13.76c1.23625,0.01344 2.39188,-0.63156 3.02344,-1.70656c0.61813,-1.075 0.61813,-2.39187 0,-3.46687c-0.63156,-1.075 -1.78719,-1.72 -3.02344,-1.70656h-13.76c-0.1075,0 -0.215,0 -0.3225,0c-0.1075,0 -0.215,0 -0.3225,0c-0.1075,0 -0.215,0 -0.3225,0zM44.29,116.96c-0.77937,0.1075 -1.505,0.49719 -2.0425,1.075l-9.7825,9.7825c-1.02125,0.83313 -1.49156,2.16344 -1.19594,3.45344c0.29562,1.27656 1.30344,2.28438 2.58,2.58c1.29,0.29563 2.62031,-0.17469 3.45344,-1.19594l9.7825,-9.7825c1.02125,-0.98094 1.33031,-2.49937 0.77938,-3.80281c-0.5375,-1.30344 -1.84094,-2.13656 -3.25188,-2.10969c-0.1075,0 -0.215,0 -0.3225,0zM126.635,116.96c-1.29,0.22844 -2.32469,1.16906 -2.6875,2.41875c-0.36281,1.26313 0.01344,2.60688 0.9675,3.49375l9.7825,9.7825c0.83313,1.02125 2.16344,1.49156 3.45344,1.19594c1.27656,-0.29562 2.28438,-1.30344 2.58,-2.58c0.29563,-1.29 -0.17469,-2.62031 -1.19594,-3.45344l-9.7825,-9.7825c-0.645,-0.68531 -1.53187,-1.06156 -2.4725,-1.075c-0.1075,0 -0.215,0 -0.3225,0c-0.1075,0 -0.215,0 -0.3225,0zM72.24,137.6h27.52v6.88h-17.2c-0.1075,0 -0.215,0 -0.3225,0c-0.1075,0 -0.215,0 -0.3225,0c-1.89469,0.17469 -3.29219,1.86781 -3.1175,3.7625c0.17469,1.89469 1.86781,3.29219 3.7625,3.1175h17.2c0,1.94844 -1.49156,3.44 -3.44,3.44h-20.64c-1.94844,0 -3.44,-1.49156 -3.44,-3.44c1.23625,0.01344 2.39188,-0.63156 3.02344,-1.70656c0.61813,-1.075 0.61813,-2.39187 0,-3.46687c-0.63156,-1.075 -1.78719,-1.72 -3.02344,-1.70656z"/>
  </symbol>
  <symbol id="off" viewBox="0 0 172 172">
    <path
      d="M86,30.96c-26.5525,0 -48.16,21.6075 -48.16,48.16c0,16.82375 7.53844,28.12469 14.62,36.4425c3.5475,4.15219 6.97406,7.67281 9.3525,10.75c2.37844,3.07719 3.5475,5.53625 3.5475,7.8475v12.685c-0.20156,0.67188 -0.20156,1.37063 0,2.0425v2.4725c0,5.65719 4.66281,10.32 10.32,10.32h2.6875c1.89469,2.09625 4.59563,3.44 7.6325,3.44c3.03688,0 5.73781,-1.34375 7.6325,-3.44h2.6875c5.65719,0 10.32,-4.66281 10.32,-10.32v-2.795c0.09406,-0.45687 0.09406,-0.94062 0,-1.3975v-13.0075c0,-2.31125 1.16906,-4.79719 3.5475,-7.8475c2.37844,-3.05031 5.805,-6.50375 9.3525,-10.6425c7.08156,-8.2775 14.62,-19.57844 14.62,-36.55c0,-26.5525 -21.6075,-48.16 -48.16,-48.16zM86,37.84c22.84375,0 41.28,18.43625 41.28,41.28c0,14.99625 -6.22156,24.34875 -12.9,32.1425c-3.3325,3.89688 -6.78594,7.29656 -9.5675,10.8575c-2.0425,2.62031 -3.50719,5.4825 -4.3,8.6h-29.025c-0.79281,-3.1175 -2.2575,-5.96625 -4.3,-8.6c-2.78156,-3.58781 -6.235,-7.04125 -9.5675,-10.965c-6.67844,-7.83406 -12.9,-17.2 -12.9,-32.035c0,-22.84375 18.43625,-41.28 41.28,-41.28zM72.24,137.6h27.52v6.88h-17.2c-0.1075,0 -0.215,0 -0.3225,0c-1.89469,0.09406 -3.37281,1.70656 -3.27875,3.60125c0.09406,1.89469 1.70656,3.37281 3.60125,3.27875h17.2c0,1.94844 -1.49156,3.44 -3.44,3.44h-20.64c-1.94844,0 -3.44,-1.49156 -3.44,-3.44c1.23625,0.01344 2.39188,-0.63156 3.02344,-1.70656c0.61813,-1.075 0.61813,-2.39187 0,-3.46687c-0.63156,-1.075 -1.78719,-1.72 -3.02344,-1.70656z"/>
  </symbol>
  <symbol id="turn-off" viewBox="0 0 172 172">
    <path
      d="M86,30.96c-26.5525,0 -48.16,21.6075 -48.16,48.16c0,16.82375 7.53844,28.12469 14.62,36.4425c3.5475,4.15219 6.97406,7.67281 9.3525,10.75c2.37844,3.07719 3.5475,5.53625 3.5475,7.8475v12.685c-0.20156,0.67188 -0.20156,1.37063 0,2.0425v2.4725c0,5.65719 4.66281,10.32 10.32,10.32h2.6875c1.89469,2.09625 4.59563,3.44 7.6325,3.44c3.03688,0 5.73781,-1.34375 7.6325,-3.44h2.6875c5.65719,0 10.32,-4.66281 10.32,-10.32v-2.795c0.09406,-0.45687 0.09406,-0.94062 0,-1.3975v-13.0075c0,-2.31125 1.16906,-4.79719 3.5475,-7.8475c2.37844,-3.05031 5.805,-6.50375 9.3525,-10.6425c7.08156,-8.2775 14.62,-19.57844 14.62,-36.55c0,-26.5525 -21.6075,-48.16 -48.16,-48.16zM86,37.84c22.84375,0 41.28,18.43625 41.28,41.28c0,14.99625 -6.22156,24.34875 -12.9,32.1425c-3.3325,3.89688 -6.78594,7.29656 -9.5675,10.8575c-2.0425,2.62031 -3.50719,5.4825 -4.3,8.6h-29.025c-0.79281,-3.1175 -2.2575,-5.96625 -4.3,-8.6c-2.78156,-3.58781 -6.235,-7.04125 -9.5675,-10.965c-6.67844,-7.83406 -12.9,-17.2 -12.9,-32.035c0,-22.84375 18.43625,-41.28 41.28,-41.28zM70.1975,60.0925c-0.14781,0.02688 -0.29562,0.06719 -0.43,0.1075c-1.29,0.22844 -2.32469,1.16906 -2.6875,2.41875c-0.36281,1.26313 0.01344,2.60688 0.9675,3.49375l13.0075,13.0075l-13.0075,13.0075c-1.37062,1.37063 -1.37062,3.57438 0,4.945c1.37063,1.37063 3.57438,1.37063 4.945,0l13.0075,-13.0075l13.0075,13.0075c1.37063,1.37063 3.57438,1.37063 4.945,0c1.37063,-1.37062 1.37063,-3.57437 0,-4.945l-13.0075,-13.0075l13.0075,-13.0075c1.11531,-1.03469 1.41094,-2.67406 0.73906,-4.03125c-0.65844,-1.37062 -2.15,-2.12312 -3.64156,-1.88125c-0.76594,0.08063 -1.49156,0.43 -2.0425,0.9675l-13.0075,13.0075l-13.0075,-13.0075c-0.71219,-0.76594 -1.74687,-1.15562 -2.795,-1.075zM72.24,137.6h27.52v6.88h-17.2c-0.1075,0 -0.215,0 -0.3225,0c-1.89469,0.09406 -3.37281,1.70656 -3.27875,3.60125c0.09406,1.89469 1.70656,3.37281 3.60125,3.27875h17.2c0,1.94844 -1.49156,3.44 -3.44,3.44h-20.64c-1.94844,0 -3.44,-1.49156 -3.44,-3.44c1.23625,0.01344 2.39188,-0.63156 3.02344,-1.70656c0.61813,-1.075 0.61813,-2.39187 0,-3.46687c-0.63156,-1.075 -1.78719,-1.72 -3.02344,-1.70656z"/>
  </symbol>
</svg>
