<svg xmlns="http://www.w3.org/2000/svg">
  <symbol id="open" viewBox="0 0 172 172">
    <path
      d="M6.88,17.2v6.88h10.32v6.88h-10.32v6.88h10.32v6.88h-10.32v6.88h13.76h3.44v-34.4h-3.44zM27.52,17.2v6.88h116.96v6.88h-116.96v6.88h116.96v6.88h-116.96v6.88h116.96h3.44h3.44v-34.4h-3.44h-3.44zM154.8,17.2v6.88h10.32v-6.88zM154.8,30.96v6.88h10.32v-6.88zM154.8,44.72v6.88h10.32v-6.88zM27.52,58.48v96.32c0,1.90232 1.54112,3.44 3.44,3.44h110.08c1.89888,0 3.44,-1.53768 3.44,-3.44v-96.32h-6.88v92.88h-103.2v-92.88z"/>
  </symbol>
  <symbol id="half" viewBox="0 0 172 172">
    <path
      d="M6.88,17.2v6.88h10.32v6.88h-10.32v6.88h10.32v6.88h-10.32v6.88h10.32v6.88h-10.32v6.88h10.32v6.88h-10.32v6.88h10.32v6.88h-10.32v6.88h10.32h3.44h3.44v-75.68h-3.44h-3.44zM27.52,17.2v6.88h116.96v6.88h-116.96v6.88h116.96v6.88h-116.96v6.88h116.96v6.88h-116.96v6.88h116.96v6.88h-116.96v6.88h116.96v6.88h-116.96v6.88h116.96h3.44h3.44v-75.68h-3.44h-3.44zM154.8,17.2v6.88h10.32v-6.88zM154.8,30.96v6.88h10.32v-6.88zM154.8,44.72v6.88h10.32v-6.88zM154.8,58.48v6.88h10.32v-6.88zM154.8,72.24v6.88h10.32v-6.88zM154.8,86v6.88h10.32v-6.88zM27.52,99.76v55.04c0,1.90232 1.54112,3.44 3.44,3.44h110.08c1.89888,0 3.44,-1.53768 3.44,-3.44v-55.04h-6.88v51.6h-103.2v-51.6z"/>
  </symbol>
  <symbol id="closed" viewBox="0 0 172 172">
    <path
      d="M6.88,17.2v6.88h10.32v6.88h-10.32v6.88h10.32v6.88h-10.32v6.88h10.32v6.88h-10.32v6.88h10.32v6.88h-10.32v6.88h10.32v6.88h-10.32v6.88h10.32v6.88h-10.32v6.88h10.32v6.88h-10.32v6.88h13.76h3.44v-103.2h-3.44zM27.52,17.2v6.88h116.96v6.88h-116.96v6.88h116.96v6.88h-116.96v6.88h116.96v6.88h-116.96v6.88h116.96v6.88h-116.96v6.88h116.96v6.88h-116.96v6.88h116.96v6.88h-116.96v6.88h116.96v6.88h-116.96v6.88h116.96h3.44h3.44v-103.2h-3.44h-3.44zM154.8,17.2v6.88h10.32v-6.88zM154.8,30.96v6.88h10.32v-6.88zM154.8,44.72v6.88h10.32v-6.88zM154.8,58.48v6.88h10.32v-6.88zM154.8,72.24v6.88h10.32v-6.88zM154.8,86v6.88h10.32v-6.88zM154.8,99.76v6.88h10.32v-6.88zM154.8,113.52v6.88h10.32v-6.88zM27.52,127.28v27.52c0,1.90232 1.54112,3.44 3.44,3.44h110.08c1.89888,0 3.44,-1.53768 3.44,-3.44v-27.52h-6.88v24.08h-103.2v-24.08z"/>
  </symbol>
  <symbol id="up" viewBox="0 0 172 172">
    <path
      d="M6.88,17.2v6.88h10.32v6.88h-10.32v6.88h10.32v6.88h-10.32v6.88h10.32v6.88h-10.32v6.88h10.32v6.88h-10.32v6.88h13.76h3.44v-61.92h-3.44zM27.52,17.2v6.88h116.96v6.88h-116.96v6.88h116.96v6.88h-116.96v6.88h116.96v6.88h-116.96v6.88h116.96v6.88h-116.96v6.88h120.4h3.44v-61.92h-3.44zM154.8,17.2v6.88h10.32v-6.88zM154.8,30.96v6.88h10.32v-6.88zM154.8,44.72v6.88h10.32v-6.88zM154.8,58.48v6.88h10.32v-6.88zM154.8,72.24v6.88h10.32v-6.88zM27.52,86v68.8c0.00019,1.89978 1.54022,3.43981 3.44,3.44h110.08c1.89978,-0.00019 3.43981,-1.54022 3.44,-3.44v-68.8h-6.88v65.36h-103.2v-65.36zM158.24,86c-1.89986,0 -3.44,1.54014 -3.44,3.44c0,1.89986 1.54014,3.44 3.44,3.44c1.89986,0 3.44,-1.54014 3.44,-3.44c0,-1.89986 -1.54014,-3.44 -3.44,-3.44zM86,91.45563l-19.63219,19.63219l4.86437,4.86437l11.32781,-11.32781v32.97563h6.88v-32.97563l11.32781,11.32781l4.86437,-4.86437zM158.24,96.32c-1.89986,0 -3.44,1.54014 -3.44,3.44c0,1.89986 1.54014,3.44 3.44,3.44c1.89986,0 3.44,-1.54014 3.44,-3.44c0,-1.89986 -1.54014,-3.44 -3.44,-3.44zM158.24,106.64c-1.89986,0 -3.44,1.54014 -3.44,3.44c0,1.89986 1.54014,3.44 3.44,3.44c1.89986,0 3.44,-1.54014 3.44,-3.44c0,-1.89986 -1.54014,-3.44 -3.44,-3.44zM158.24,116.96c-1.89986,0 -3.44,1.54014 -3.44,3.44c0,1.89986 1.54014,3.44 3.44,3.44c1.89986,0 3.44,-1.54014 3.44,-3.44c0,-1.89986 -1.54014,-3.44 -3.44,-3.44zM158.24,127.28c-1.89986,0 -3.44,1.54014 -3.44,3.44c0,1.89986 1.54014,3.44 3.44,3.44c1.89986,0 3.44,-1.54014 3.44,-3.44c0,-1.89986 -1.54014,-3.44 -3.44,-3.44zM158.24,137.6c-3.784,0 -6.88,3.096 -6.88,6.88c0,3.784 3.096,6.88 6.88,6.88c3.784,0 6.88,-3.096 6.88,-6.88c0,-3.784 -3.096,-6.88 -6.88,-6.88z"/>
  </symbol>
  <symbol id="down" viewBox="0 0 172 172">
    <path
      d="M6.88,17.2v6.88h10.32v6.88h-10.32v6.88h10.32v6.88h-10.32v6.88h10.32v6.88h-10.32v6.88h10.32v6.88h-10.32v6.88h13.76h3.44v-61.92h-3.44zM27.52,17.2v6.88h116.96v6.88h-116.96v6.88h116.96v6.88h-116.96v6.88h116.96v6.88h-116.96v6.88h116.96v6.88h-116.96v6.88h120.4h3.44v-61.92h-3.44zM154.8,17.2v6.88h10.32v-6.88zM154.8,30.96v6.88h10.32v-6.88zM154.8,44.72v6.88h10.32v-6.88zM154.8,58.48v6.88h10.32v-6.88zM154.8,72.24v6.88h10.32v-6.88zM27.52,86v68.8c0.00019,1.89978 1.54022,3.43981 3.44,3.44h110.08c1.89978,-0.00019 3.43981,-1.54022 3.44,-3.44v-68.8h-6.88v65.36h-103.2v-65.36zM158.24,86c-1.89986,0 -3.44,1.54014 -3.44,3.44c0,1.89986 1.54014,3.44 3.44,3.44c1.89986,0 3.44,-1.54014 3.44,-3.44c0,-1.89986 -1.54014,-3.44 -3.44,-3.44zM82.56,92.88v32.97563l-11.32781,-11.32781l-4.86437,4.86437l19.63219,19.63219l19.63219,-19.63219l-4.86437,-4.86437l-11.32781,11.32781v-32.97563zM158.24,96.32c-1.89986,0 -3.44,1.54014 -3.44,3.44c0,1.89986 1.54014,3.44 3.44,3.44c1.89986,0 3.44,-1.54014 3.44,-3.44c0,-1.89986 -1.54014,-3.44 -3.44,-3.44zM158.24,106.64c-1.89986,0 -3.44,1.54014 -3.44,3.44c0,1.89986 1.54014,3.44 3.44,3.44c1.89986,0 3.44,-1.54014 3.44,-3.44c0,-1.89986 -1.54014,-3.44 -3.44,-3.44zM158.24,116.96c-1.89986,0 -3.44,1.54014 -3.44,3.44c0,1.89986 1.54014,3.44 3.44,3.44c1.89986,0 3.44,-1.54014 3.44,-3.44c0,-1.89986 -1.54014,-3.44 -3.44,-3.44zM158.24,127.28c-1.89986,0 -3.44,1.54014 -3.44,3.44c0,1.89986 1.54014,3.44 3.44,3.44c1.89986,0 3.44,-1.54014 3.44,-3.44c0,-1.89986 -1.54014,-3.44 -3.44,-3.44zM158.24,137.6c-3.784,0 -6.88,3.096 -6.88,6.88c0,3.784 3.096,6.88 6.88,6.88c3.784,0 6.88,-3.096 6.88,-6.88c0,-3.784 -3.096,-6.88 -6.88,-6.88z"/>
  </symbol>
  <symbol id="pause" viewBox="0 0 172 172">
    <path
      d="M6.88,17.2v6.88h10.32v6.88h-10.32v6.88h10.32v6.88h-10.32v6.88h10.32v6.88h-10.32v6.88h10.32v6.88h-10.32v6.88h13.76h3.44v-61.92h-3.44zM27.52,17.2v6.88h116.96v6.88h-116.96v6.88h116.96v6.88h-116.96v6.88h116.96v6.88h-116.96v6.88h116.96v6.88h-116.96v6.88h120.4h3.44v-61.92h-3.44zM154.8,17.2v6.88h10.32v-6.88zM154.8,30.96v6.88h10.32v-6.88zM154.8,44.72v6.88h10.32v-6.88zM154.8,58.48v6.88h10.32v-6.88zM154.8,72.24v6.88h10.32v-6.88zM27.52,86v68.8c0.00019,1.89978 1.54022,3.43981 3.44,3.44h110.08c1.89978,-0.00019 3.43981,-1.54022 3.44,-3.44v-68.8h-6.88v65.36h-103.2v-65.36zM158.24,86c-1.89986,0 -3.44,1.54014 -3.44,3.44c0,1.89986 1.54014,3.44 3.44,3.44c1.89986,0 3.44,-1.54014 3.44,-3.44c0,-1.89986 -1.54014,-3.44 -3.44,-3.44zM63.64,137.5v-44.72h16v44.72zM91.64,137.5v-44.72h16v44.72zM158.24,96.32c-1.89986,0 -3.44,1.54014 -3.44,3.44c0,1.89986 1.54014,3.44 3.44,3.44c1.89986,0 3.44,-1.54014 3.44,-3.44c0,-1.89986 -1.54014,-3.44 -3.44,-3.44zM158.24,106.64c-1.89986,0 -3.44,1.54014 -3.44,3.44c0,1.89986 1.54014,3.44 3.44,3.44c1.89986,0 3.44,-1.54014 3.44,-3.44c0,-1.89986 -1.54014,-3.44 -3.44,-3.44zM158.24,116.96c-1.89986,0 -3.44,1.54014 -3.44,3.44c0,1.89986 1.54014,3.44 3.44,3.44c1.89986,0 3.44,-1.54014 3.44,-3.44c0,-1.89986 -1.54014,-3.44 -3.44,-3.44zM158.24,127.28c-1.89986,0 -3.44,1.54014 -3.44,3.44c0,1.89986 1.54014,3.44 3.44,3.44c1.89986,0 3.44,-1.54014 3.44,-3.44c0,-1.89986 -1.54014,-3.44 -3.44,-3.44zM158.24,137.6c-3.784,0 -6.88,3.096 -6.88,6.88c0,3.784 3.096,6.88 6.88,6.88c3.784,0 6.88,-3.096 6.88,-6.88c0,-3.784 -3.096,-6.88 -6.88,-6.88z"/>
  </symbol>
</svg>
