<svg xmlns="http://www.w3.org/2000/svg">
  <symbol id="main" viewBox="0 0 172 172">
    <path
      d="M86,0c-0.13689,-0.00144 -0.27375,0.00529 -0.40985,0.02016c-5.15229,0.05604 -10.00195,1.14391 -13.81375,3.89688c-3.91433,2.82702 -6.4164,7.56602 -6.4164,13.28297v16.62219c-0.0614,0.37149 -0.0614,0.75054 0,1.12203v60.29406c-12.37413,7.1039 -20.64,20.23848 -20.64,35.48172c0,22.70368 18.26059,41.06323 40.91719,41.25985c0.1205,0.0131 0.2416,0.01983 0.36281,0.02015c0.13017,0.00066 0.26028,-0.00607 0.38969,-0.02015c22.64406,-0.21102 40.89031,-18.56522 40.89031,-41.25985c0,-15.24324 -8.26587,-28.37782 -20.64,-35.48172v-60.26047c0.0614,-0.37149 0.0614,-0.75054 0,-1.12203v-16.65578c0,-5.71695 -2.50207,-10.45595 -6.4164,-13.28297c-3.81515,-2.75539 -8.66982,-3.84263 -13.82719,-3.89688c-0.13164,-0.01434 -0.26399,-0.02107 -0.3964,-0.02016zM86,6.88c4.32457,0 7.92139,0.96861 10.19906,2.61359c2.27767,1.64498 3.56094,3.79136 3.56094,7.70641v13.76h-27.52v-13.76c0,-3.91505 1.28327,-6.06142 3.56094,-7.70641c2.27767,-1.64498 5.87449,-2.61359 10.19906,-2.61359zM72.24,37.84h27.52v6.88h-13.76v6.88h13.76v6.88h-6.88v6.88h6.88v6.88h-13.76v6.88h13.76v17.88531c-0.00009,1.30304 0.736,2.49431 1.9014,3.07719c11.24443,5.62222 18.7386,17.1255 18.7386,30.6375c0,19.14181 -15.25819,34.4 -34.4,34.4c-19.14181,0 -34.4,-15.25819 -34.4,-34.4c0,-13.512 7.49416,-25.01528 18.7386,-30.6375c1.16541,-0.58288 1.90149,-1.77415 1.9014,-3.07719z"/>
  </symbol>
</svg>
